<?xml version="1.0" standalone="no"?>
<!DOCTYPE svg PUBLIC "-//W3C//DTD SVG 20010904//EN"
 "http://www.w3.org/TR/2001/REC-SVG-20010904/DTD/svg10.dtd">
<svg version="1.0" xmlns="http://www.w3.org/2000/svg"
 width="720.000000pt" height="720.000000pt" viewBox="0 0 720.000000 720.000000"
 preserveAspectRatio="xMidYMid meet">
<metadata>
Created by potrace 1.14, written by Peter Selinger 2001-2017
</metadata>
<g transform="translate(0.000000,720.000000) scale(0.100000,-0.100000)"
fill="#000000" stroke="none">
<path d="M3481 7095 c-68 -52 -126 -95 -130 -95 -3 0 -66 34 -140 75 -73 41
-135 75 -137 75 -4 0 -42 -38 -157 -158 l-68 -71 -147 54 c-80 31 -149 54
-153 53 -8 -3 -83 -106 -149 -205 -38 -56 -33 -54 -123 -34 -26 6 -62 14 -80
16 -17 3 -58 12 -90 19 l-57 13 -45 -86 c-25 -47 -57 -112 -72 -144 l-27 -58
-105 6 c-59 3 -129 8 -158 11 -35 3 -54 1 -59 -8 -5 -7 -28 -74 -52 -148 -24
-74 -47 -138 -51 -142 -7 -8 -56 -14 -186 -24 -49 -4 -97 -8 -105 -10 -8 -1
-18 -3 -21 -3 -5 -1 -25 -97 -34 -163 -6 -49 -24 -151 -27 -153 -2 -1 -73 -19
-158 -40 l-155 -37 0 -136 c0 -204 17 -178 -155 -247 -147 -59 -147 -59 -140
-86 5 -15 6 -29 4 -32 -2 -2 0 -28 5 -58 9 -51 21 -141 24 -183 2 -15 -30 -39
-133 -101 -106 -64 -134 -86 -132 -101 2 -10 21 -78 43 -151 21 -72 39 -134
39 -136 0 -3 -54 -49 -120 -103 -66 -54 -120 -104 -120 -110 0 -10 25 -67 110
-249 5 -11 11 -25 12 -31 2 -6 -29 -46 -68 -90 -123 -137 -136 -154 -131 -167
2 -6 41 -67 86 -135 l82 -124 -85 -128 c-48 -71 -86 -134 -86 -140 0 -5 8 -18
18 -28 9 -10 35 -39 57 -63 22 -25 61 -68 87 -96 l47 -52 -64 -136 c-36 -75
-65 -143 -65 -150 0 -7 54 -57 120 -111 66 -54 120 -100 120 -103 0 -3 -20
-73 -45 -156 -24 -82 -43 -150 -42 -150 1 -1 64 -39 140 -84 136 -82 138 -83
132 -114 -3 -18 -7 -45 -10 -62 -3 -16 -10 -70 -16 -120 -6 -49 -13 -93 -15
-96 -2 -4 60 -32 139 -64 78 -31 146 -61 151 -65 5 -5 10 -77 11 -160 1 -83 6
-155 11 -159 9 -9 263 -71 288 -71 13 0 24 -42 41 -155 26 -175 25 -174 85
-176 19 -1 44 -3 55 -4 11 -1 61 -5 110 -9 50 -4 93 -11 97 -14 3 -4 27 -74
53 -155 l47 -148 86 6 c48 2 121 7 162 10 l75 6 70 -143 c45 -92 75 -143 85
-142 22 1 91 14 125 25 17 4 46 11 65 14 19 3 50 10 68 15 41 11 44 9 147
-138 43 -62 83 -112 89 -112 6 0 74 25 151 55 l140 54 110 -114 c61 -63 114
-115 118 -115 4 0 68 34 142 76 81 45 140 72 148 68 6 -5 63 -48 126 -97 131
-103 105 -103 240 3 118 92 138 104 154 93 6 -6 37 -24 67 -40 30 -17 84 -47
118 -67 35 -20 67 -36 72 -36 4 0 57 51 117 114 l109 114 150 -57 150 -57 94
133 c66 94 98 132 109 129 38 -11 99 -25 131 -30 19 -4 64 -13 100 -20 36 -8
65 -14 66 -13 1 1 34 66 73 144 l71 142 97 -6 c54 -3 127 -6 162 -7 l65 -1 49
153 49 152 36 1 c21 0 44 2 52 4 24 4 183 17 207 16 24 -1 23 -3 48 144 8 50
17 101 19 115 2 14 5 32 5 41 1 21 4 22 164 60 72 17 137 35 143 40 7 6 11 65
12 161 1 84 5 155 10 159 4 3 30 14 57 24 28 10 55 21 60 25 6 4 47 22 92 39
78 31 83 35 79 60 -3 14 -8 51 -11 81 -4 30 -9 62 -10 70 -2 8 -6 44 -10 80
l-6 65 135 79 c75 44 136 82 136 86 0 3 -20 72 -43 153 -24 80 -41 150 -38
154 3 5 42 38 86 73 44 36 85 70 92 77 7 6 24 21 39 32 l25 20 -65 140 c-36
78 -66 145 -66 149 0 5 47 61 105 125 l105 116 -85 130 c-47 72 -85 135 -85
141 0 6 35 63 78 128 43 64 81 122 85 128 4 6 -1 20 -11 31 -9 11 -42 48 -72
83 -30 35 -67 74 -82 88 -15 14 -30 33 -33 42 -3 10 19 69 51 136 31 66 60
129 65 141 7 19 -2 30 -74 90 -106 88 -118 98 -144 120 l-21 18 44 150 c24 83
44 152 44 155 0 3 -61 41 -136 85 l-136 80 7 65 c4 36 9 72 10 81 2 9 6 40 10
70 3 30 8 66 10 80 4 24 -2 28 -141 84 -79 32 -147 61 -149 65 -2 4 -5 77 -6
163 l-2 155 -156 39 c-173 43 -162 34 -175 139 -9 77 -33 204 -38 210 -8 8
-40 12 -140 20 -51 3 -100 8 -108 10 -8 1 -27 3 -42 3 -26 1 -29 7 -77 154
l-49 152 -48 -1 c-27 -1 -100 -5 -161 -8 l-113 -6 -71 142 c-39 79 -72 144
-73 145 0 1 -57 -11 -126 -26 -69 -16 -139 -31 -157 -34 -31 -6 -33 -4 -123
123 -50 72 -95 130 -100 130 -5 0 -24 -7 -42 -15 -18 -8 -82 -32 -143 -55
l-110 -41 -111 118 -111 117 -138 -78 c-119 -67 -142 -77 -158 -67 -10 7 -68
50 -127 97 -60 46 -110 84 -112 84 -3 0 -60 -43 -127 -95z m339 -160 c194 -13
218 -16 407 -50 68 -12 88 -16 146 -31 34 -8 71 -17 82 -19 36 -8 178 -52 265
-83 672 -235 1268 -700 1671 -1303 284 -424 471 -925 534 -1429 27 -215 27
-677 0 -841 -2 -13 -6 -42 -10 -64 -9 -66 -27 -169 -39 -225 -3 -14 -8 -38
-12 -55 -11 -54 -72 -258 -109 -365 -122 -352 -365 -767 -617 -1058 -116 -133
-385 -385 -513 -480 -360 -267 -779 -471 -1168 -568 -34 -8 -78 -19 -97 -24
-19 -5 -46 -11 -60 -13 -14 -3 -63 -12 -110 -21 -289 -53 -672 -65 -955 -31
-16 3 -50 7 -75 10 -409 50 -867 207 -1233 423 -43 26 -93 55 -110 66 -143 83
-395 285 -556 445 -170 168 -277 296 -413 491 -231 332 -441 820 -513 1195 -5
22 -9 45 -10 50 -4 15 -13 72 -25 155 -6 41 -13 89 -15 105 -25 168 -25 640
-1 762 3 12 7 50 11 85 9 92 60 330 100 469 83 287 219 588 385 854 40 63 147
218 176 255 186 232 369 415 610 608 204 164 545 356 834 470 115 45 282 97
420 131 117 28 147 34 225 47 17 2 41 6 55 9 14 2 52 7 85 11 33 3 69 8 80 10
11 2 76 7 145 10 69 3 126 7 127 8 4 3 189 -2 283 -9z"/>
<path d="M3462 6828 c3 -20 9 -23 48 -23 39 0 45 3 48 23 3 20 -1 22 -48 22
-48 0 -51 -2 -48 -22z"/>
<path d="M3660 6827 c0 -20 5 -22 50 -23 46 -1 51 1 48 20 -3 18 -11 21 -50
23 -44 2 -48 0 -48 -20z"/>
<path d="M3278 6832 c-10 -2 -18 -12 -18 -23 0 -18 6 -20 54 -18 43 2 53 5 51
18 -2 9 -4 19 -4 23 -1 7 -51 7 -83 0z"/>
<path d="M3854 6825 c-9 -23 2 -31 49 -33 34 -2 46 1 51 14 9 23 5 25 -48 29
-34 3 -48 0 -52 -10z"/>
<path d="M3103 6813 c-33 -4 -46 -21 -33 -42 5 -9 19 -10 51 -4 36 7 44 13 45
31 1 23 1 23 -63 15z"/>
<path d="M4050 6794 c0 -20 5 -24 28 -24 15 0 37 -3 50 -6 18 -5 22 -2 22 15
0 23 -6 27 -62 35 -35 4 -38 3 -38 -20z"/>
<path d="M2955 6784 c-5 -1 -27 -5 -47 -9 -28 -4 -37 -10 -35 -23 1 -9 5 -19
7 -21 7 -7 88 8 93 17 7 11 -7 39 -18 36z"/>
<path d="M4246 6773 c-11 -27 -6 -31 41 -41 54 -12 50 -13 55 12 2 16 -6 22
-44 31 -40 11 -48 10 -52 -2z"/>
<path d="M2718 6728 c-37 -10 -45 -22 -30 -44 5 -8 20 -8 54 2 38 12 45 17 41
34 -6 22 -11 23 -65 8z"/>
<path d="M4440 6726 c0 -9 0 -19 -1 -23 0 -4 19 -13 43 -20 33 -9 44 -10 50 0
13 20 9 27 -17 37 -56 21 -75 23 -75 6z"/>
<path d="M2523 6665 c-34 -15 -38 -21 -25 -43 7 -9 18 -9 54 4 37 12 45 19 41
35 -6 22 -26 24 -70 4z"/>
<path d="M4626 6665 c-3 -9 -6 -18 -6 -20 0 -3 88 -35 96 -35 1 0 4 9 7 21 4
15 -1 22 -19 29 -54 21 -71 22 -78 5z"/>
<path d="M2347 6596 c-43 -19 -47 -23 -35 -39 13 -17 15 -17 55 0 42 18 49 28
35 49 -5 8 -21 5 -55 -10z"/>
<path d="M4808 6592 c-7 -25 79 -63 93 -41 13 21 12 24 -26 42 -46 22 -62 21
-67 -1z"/>
<path d="M2175 6518 c-50 -26 -48 -23 -40 -47 l6 -20 45 21 c44 22 51 32 36
55 -5 8 -18 5 -47 -9z"/>
<path d="M4987 6515 c-4 -8 -3 -16 1 -19 4 -2 24 -13 44 -25 l38 -20 11 20 c6
11 9 21 7 22 -2 1 -17 10 -35 20 -38 21 -59 22 -66 2z"/>
<path d="M1987 6419 c-32 -17 -36 -22 -27 -39 13 -25 10 -25 57 3 26 15 37 28
35 40 -4 22 -18 21 -65 -4z"/>
<path d="M5166 6423 c-7 -17 -1 -23 48 -49 24 -13 30 -14 37 -2 14 21 11 25
-25 47 -40 25 -52 26 -60 4z"/>
<path d="M1819 6315 c-19 -14 -33 -28 -32 -31 15 -33 19 -33 60 -6 34 22 40
31 32 45 -13 22 -19 22 -60 -8z"/>
<path d="M5337 6333 c-15 -14 -5 -32 33 -57 38 -25 40 -25 50 -6 9 16 5 23
-27 45 -40 27 -46 29 -56 18z"/>
<path d="M3469 6282 c-80 -93 -108 -226 -74 -354 15 -59 29 -87 89 -181 61
-95 80 -171 57 -229 -5 -13 -25 -40 -45 -61 -30 -31 -35 -41 -26 -57 14 -27
25 -31 52 -21 63 24 110 104 111 191 1 75 -25 145 -84 232 -61 91 -83 154 -83
238 1 68 24 137 64 187 24 31 25 46 4 67 -22 23 -37 20 -65 -12z"/>
<path d="M1658 6201 c-33 -25 -36 -30 -24 -46 13 -18 16 -17 55 14 35 28 39
34 27 47 -18 18 -14 19 -58 -15z"/>
<path d="M5496 6214 c-3 -9 -6 -17 -6 -19 0 -1 16 -15 35 -30 29 -21 39 -24
50 -15 22 18 19 25 -23 54 -45 30 -48 31 -56 10z"/>
<path d="M1504 6077 c-35 -32 -37 -38 -24 -51 13 -13 20 -11 55 19 37 32 39
35 24 51 -16 15 -20 14 -55 -19z"/>
<path d="M5652 6090 c-7 -11 -9 -20 -5 -20 5 0 22 -13 39 -29 23 -22 34 -27
43 -18 17 17 14 25 -21 57 -39 35 -40 35 -56 10z"/>
<path d="M1356 5944 c-35 -34 -36 -37 -19 -49 16 -12 22 -10 53 20 31 31 33
36 19 50 -14 14 -19 12 -53 -21z"/>
<path d="M5800 5965 c-10 -12 -6 -21 22 -49 32 -32 37 -34 54 -21 18 13 17 15
-16 49 -40 40 -43 41 -60 21z"/>
<path d="M3236 5914 c-33 -36 -49 -101 -44 -172 3 -47 13 -74 47 -131 50 -85
54 -118 18 -161 -28 -33 -27 -54 5 -71 14 -8 25 -6 44 5 39 27 58 64 58 120 1
50 -7 72 -70 186 -31 57 -30 100 2 160 21 39 24 51 15 69 -16 29 -45 26 -75
-5z"/>
<path d="M1222 5807 c-35 -36 -40 -52 -17 -61 10 -3 27 7 45 27 34 37 35 41
17 56 -10 8 -21 3 -45 -22z"/>
<path d="M5939 5824 c-10 -13 -7 -20 22 -50 30 -29 37 -33 52 -22 16 12 15 16
-15 51 -37 42 -40 43 -59 21z"/>
<path d="M1090 5657 c-34 -37 -35 -40 -15 -57 15 -13 13 -14 62 41 22 24 22
25 3 37 -17 10 -23 7 -50 -21z"/>
<path d="M6071 5676 c-10 -11 -6 -21 19 -50 27 -30 34 -34 50 -24 17 11 16 14
-13 50 -34 42 -39 44 -56 24z"/>
<path d="M3378 5652 l-28 -3 20 -39 c20 -38 28 -67 29 -102 1 -25 82 -25 102
-1 16 19 19 117 4 132 -11 11 -82 18 -127 13z"/>
<path d="M3017 5619 c-227 -39 -360 -111 -385 -209 -11 -43 -10 -414 1 -456 3
-12 8 -39 11 -60 25 -158 112 -351 210 -466 175 -205 394 -291 651 -256 157
21 276 81 398 201 69 68 86 79 129 87 79 15 227 68 302 108 120 64 226 185
250 287 16 64 8 155 -18 212 -64 139 -113 168 -301 178 -38 2 -72 4 -75 4 -3
1 -6 36 -7 78 -3 87 -15 133 -42 157 -29 27 -183 97 -241 111 -48 11 -161 34
-197 39 l-43 6 5 -41 c3 -22 1 -57 -5 -77 -5 -20 -8 -37 -7 -38 1 -1 22 -5 47
-8 167 -23 177 -25 247 -47 35 -12 62 -26 61 -31 -4 -11 -49 -27 -128 -48 -61
-16 -65 -17 -150 -24 -41 -4 -93 -10 -115 -13 -47 -6 -390 -6 -455 2 -25 2
-70 7 -100 10 -30 3 -62 8 -70 10 -8 2 -31 6 -51 9 -51 8 -132 39 -136 53 -8
24 169 67 322 79 44 4 87 8 95 10 8 1 18 3 23 3 17 2 5 48 -25 98 -37 61 -30
60 -201 32z m23 -443 c136 -24 177 -28 330 -31 165 -3 275 6 425 36 28 5 61
11 74 14 26 5 121 32 146 41 14 6 15 -5 10 -101 -4 -59 -8 -117 -11 -128 -2
-12 -6 -39 -9 -62 -22 -152 -108 -331 -211 -441 -77 -81 -183 -145 -263 -159
-19 -3 -38 -8 -42 -11 -5 -3 -43 -5 -86 -5 -233 0 -449 171 -547 433 -37 99
-65 242 -72 366 l-6 110 89 -23 c48 -13 126 -30 173 -39z m1366 -122 c31 -21
54 -64 54 -100 0 -68 -83 -175 -170 -219 -43 -22 -170 -58 -177 -51 -2 2 9 55
26 117 16 63 32 136 36 163 7 54 34 86 87 104 42 14 111 7 144 -14z"/>
<path d="M6198 5526 c-17 -12 -16 -16 13 -56 28 -39 32 -41 47 -27 14 15 13
20 -13 57 -15 22 -28 40 -29 40 0 0 -9 -7 -18 -14z"/>
<path d="M972 5503 c-32 -48 -33 -52 -13 -62 16 -9 23 -4 45 30 15 22 24 44
21 49 -11 18 -33 10 -53 -17z"/>
<path d="M856 5333 c-17 -27 -21 -42 -14 -50 16 -20 25 -16 52 24 19 27 23 40
14 50 -16 20 -26 16 -52 -24z"/>
<path d="M6303 5362 c-8 -5 -4 -19 14 -50 27 -45 30 -47 52 -33 11 7 9 16 -10
50 -23 41 -34 47 -56 33z"/>
<path d="M753 5156 l-22 -44 22 -6 c11 -3 22 -4 22 -3 1 1 11 20 24 41 17 31
19 41 9 47 -24 16 -34 9 -55 -35z"/>
<path d="M6411 5191 c-12 -8 -11 -15 6 -47 21 -41 31 -48 51 -35 11 7 10 16
-7 50 -22 43 -27 46 -50 32z"/>
<path d="M668 4991 c-22 -47 -22 -57 -2 -65 20 -8 17 -11 42 42 20 41 20 43 2
52 -25 13 -23 15 -42 -29z"/>
<path d="M6501 5016 c-10 -11 -8 -23 9 -55 21 -43 26 -46 48 -32 11 6 9 17 -9
54 -25 51 -30 54 -48 33z"/>
<path d="M587 4803 c-19 -51 -19 -50 6 -55 13 -2 23 9 37 39 19 42 19 43 0 53
-26 14 -24 15 -43 -37z"/>
<path d="M6587 4838 c-16 -12 -16 -15 -1 -55 17 -42 28 -50 50 -35 8 5 5 21
-10 55 -19 43 -23 47 -39 35z"/>
<path d="M519 4616 c-16 -43 -15 -44 6 -54 20 -9 23 -7 34 27 15 53 14 71 -7
71 -11 0 -22 -15 -33 -44z"/>
<path d="M6653 4652 c-9 -6 -9 -18 1 -52 11 -35 18 -44 32 -42 27 5 27 7 12
53 -15 45 -25 54 -45 41z"/>
<path d="M462 4428 c-10 -50 -8 -58 17 -58 14 0 21 10 25 36 4 19 10 42 13 50
4 10 -2 14 -20 14 -22 0 -27 -6 -35 -42z"/>
<path d="M6705 4461 c-3 -6 -1 -30 6 -54 9 -37 14 -44 30 -40 22 6 23 14 8 66
-9 35 -31 48 -44 28z"/>
<path d="M423 4268 c0 -7 -4 -29 -8 -49 -6 -31 -4 -37 14 -42 22 -5 24 0 36
66 5 34 4 37 -18 37 -13 0 -24 -6 -24 -12z"/>
<path d="M6753 4272 c-18 -11 6 -105 25 -97 7 3 17 5 22 5 11 0 -13 93 -25 97
-6 1 -15 -1 -22 -5z"/>
<path d="M389 4068 c0 -13 -2 -36 -4 -51 -2 -18 1 -30 11 -34 20 -8 25 0 34
47 6 34 4 42 -11 50 -25 14 -29 13 -30 -12z"/>
<path d="M6780 4068 c0 -7 3 -30 6 -50 5 -31 11 -38 29 -38 20 0 22 3 15 38
-3 20 -6 42 -6 47 1 6 -9 11 -21 13 -14 2 -23 -2 -23 -10z"/>
<path d="M369 3873 c-1 -10 -3 -33 -5 -50 -3 -29 -1 -33 21 -33 23 0 25 3 25
50 0 43 -3 50 -20 50 -12 0 -20 -7 -21 -17z"/>
<path d="M6806 3882 c-6 -10 1 -92 8 -99 3 -3 12 -3 21 0 16 7 21 73 7 92 -9
13 -30 17 -36 7z"/>
<path d="M1799 3800 c-1 -5 -2 -18 -3 -27 -1 -17 91 -18 1809 -18 l1810 0 3
28 3 27 -1810 0 c-1200 0 -1811 -3 -1812 -10z"/>
<path d="M359 3670 c-4 -66 -1 -80 21 -80 17 0 20 7 20 50 0 43 -3 50 -20 50
-13 0 -20 -7 -21 -20z"/>
<path d="M6817 3683 c-4 -3 -7 -26 -7 -50 0 -32 4 -43 15 -43 8 0 18 0 23 0 8
0 12 57 5 83 -4 17 -24 23 -36 10z"/>
<path d="M5649 3552 c-29 -41 -55 -79 -57 -84 -2 -4 23 -8 55 -8 55 0 61 3
127 55 l69 55 -37 15 c-20 8 -51 21 -69 29 l-33 13 -55 -75z"/>
<path d="M364 3486 c-3 -8 -4 -31 -2 -52 2 -31 7 -39 23 -39 16 0 20 7 21 35
1 56 -28 94 -42 56z"/>
<path d="M6808 3440 c-3 -46 -1 -50 20 -50 17 0 22 6 23 28 1 15 3 37 4 50 2
17 -3 22 -20 22 -20 0 -23 -6 -27 -50z"/>
<path d="M3660 3405 c-260 -54 -399 -351 -277 -592 119 -234 471 -292 660
-108 89 86 129 180 128 303 0 147 -68 269 -191 347 -80 50 -217 72 -320 50z
m197 -135 c224 -98 234 -407 18 -523 -32 -17 -57 -22 -120 -21 -93 0 -138 19
-196 81 -62 65 -74 97 -74 198 0 103 16 144 82 207 78 75 197 99 290 58z"/>
<path d="M4827 3409 c-50 -8 -110 -35 -147 -66 -61 -51 -82 -181 -41 -260 34
-68 85 -98 245 -143 121 -34 161 -57 169 -96 9 -49 -6 -78 -53 -102 -74 -38
-176 -21 -279 46 l-53 35 -39 -44 c-21 -24 -39 -48 -39 -52 0 -15 55 -56 109
-82 144 -69 316 -66 412 8 61 47 84 97 83 182 -1 139 -51 179 -313 255 -88 26
-121 54 -121 105 0 111 169 125 341 28 7 -4 69 82 69 95 0 14 -76 56 -135 75
-61 20 -144 26 -208 16z"/>
<path d="M1570 3390 c-4 -3 -40 -77 -78 -165 -87 -201 -216 -493 -248 -563
-13 -29 -24 -54 -24 -55 0 -2 32 -4 71 -4 l71 -1 41 89 c36 77 44 89 66 90
104 3 364 0 368 -5 3 -3 22 -43 42 -88 l37 -83 72 -2 c40 -1 72 1 71 5 0 4
-78 182 -173 397 l-173 390 -67 0 c-37 0 -71 -2 -76 -5z m86 -192 c4 -13 19
-50 34 -83 51 -111 89 -200 86 -202 -4 -4 -267 -5 -271 -1 -5 5 129 308 137
308 4 0 10 -10 14 -22z"/>
<path d="M2169 3361 c-1 -32 0 -614 1 -717 l0 -41 245 0 c135 0 245 2 246 6 0
3 2 32 3 64 l3 57 -51 0 c-28 1 -109 2 -181 3 l-130 2 0 328 c0 180 -2 328 -5
328 -3 1 -33 2 -67 3 l-63 2 -1 -35z"/>
<path d="M2659 3389 c-5 -3 -9 -31 -8 -62 l2 -56 114 1 c62 0 116 -2 119 -5 3
-3 5 -153 5 -334 l-1 -329 67 1 68 0 2 329 c2 181 5 331 7 333 2 2 55 5 117 6
l114 2 3 58 c2 31 0 58 -5 58 -30 5 -596 3 -604 -2z"/>
<path d="M5370 3390 c-4 -3 -7 -180 -6 -395 l1 -390 280 -1 c317 -1 294 -8
287 82 l-4 44 -214 0 c-164 0 -214 3 -215 13 -1 17 -1 169 0 185 1 9 46 12
191 12 l189 0 -1 60 c-1 53 -4 60 -22 61 -12 0 -96 1 -188 1 l-167 -1 -3 47
c-2 26 -1 72 0 104 l4 56 191 1 c106 0 200 0 210 0 14 1 17 11 17 64 l0 62
-271 0 c-149 0 -274 -2 -279 -5z"/>
<path d="M374 3287 c-6 -17 9 -88 19 -87 4 0 14 0 23 0 8 0 13 4 10 8 -3 5 -6
27 -7 50 -2 33 -7 42 -21 42 -10 0 -21 -6 -24 -13z"/>
<path d="M6800 3295 c0 0 -3 -23 -6 -52 -6 -48 -5 -52 15 -50 23 1 28 13 30
67 1 30 -2 36 -19 36 -11 0 -20 0 -20 -1z"/>
<path d="M404 3103 c-8 -2 -9 -17 -3 -46 4 -23 8 -46 9 -50 0 -5 10 -7 23 -5
22 3 23 11 12 68 -2 8 -4 18 -4 21 -1 10 -24 17 -37 12z"/>
<path d="M6765 3054 c-5 -33 -3 -49 6 -54 20 -13 35 -2 37 28 2 15 4 36 5 47
1 14 -5 21 -19 23 -19 3 -23 -3 -29 -44z"/>
<path d="M437 2903 c-4 -9 -3 -14 8 -61 9 -40 19 -47 38 -28 20 21 1 96 -24
96 -10 0 -20 -3 -22 -7z"/>
<path d="M6731 2873 c-14 -51 -14 -60 5 -67 9 -3 17 -6 19 -6 1 0 8 21 14 47
10 37 9 48 -1 54 -22 14 -27 10 -37 -28z"/>
<path d="M493 2712 c-9 -6 -10 -17 -4 -38 17 -56 22 -62 42 -57 16 4 19 11 14
27 -4 11 -9 33 -12 49 -5 27 -18 33 -40 19z"/>
<path d="M6678 2673 c-11 -35 -12 -50 -4 -55 23 -16 34 -7 45 39 10 37 9 48
-1 54 -21 14 -24 11 -40 -38z"/>
<path d="M548 2524 c-4 -3 1 -25 9 -50 10 -29 21 -44 32 -44 28 0 29 8 12 55
-14 41 -36 57 -53 39z"/>
<path d="M6616 2490 c-20 -51 -20 -57 3 -63 15 -4 23 5 36 40 15 38 15 47 4
54 -22 14 -26 11 -43 -31z"/>
<path d="M628 2342 c-16 -7 -16 -11 5 -55 20 -43 24 -47 40 -35 17 13 17 15 0
55 -10 24 -20 43 -23 42 -3 0 -13 -3 -22 -7z"/>
<path d="M6541 2307 c-12 -29 -15 -46 -8 -54 16 -22 27 -15 47 33 24 55 24 51
0 57 -16 4 -24 -3 -39 -36z"/>
<path d="M710 2155 c-20 -24 12 -65 47 -61 35 4 47 46 13 46 -11 0 -23 7 -26
15 -8 19 -18 19 -34 0z"/>
<path d="M6470 2155 c-7 -8 -18 -15 -25 -15 -16 0 -26 -23 -17 -37 6 -9 61
-10 65 -1 1 2 7 13 14 24 9 16 9 24 0 33 -15 15 -22 14 -37 -4z"/>
<path d="M889 2136 c0 0 -2 -8 -4 -18 -3 -19 15 -25 65 -23 27 1 35 6 35 21 0
16 -8 19 -47 20 -27 1 -48 1 -49 0z"/>
<path d="M1080 2119 c0 -11 6 -19 13 -20 6 -1 27 -2 44 -4 32 -3 60 16 49 33
-3 5 -28 9 -56 9 -42 0 -50 -3 -50 -18z"/>
<path d="M1280 2116 c0 -18 6 -21 50 -22 46 -2 50 0 50 21 0 21 -4 23 -50 22
-44 0 -50 -3 -50 -21z"/>
<path d="M1483 2125 c-9 -24 5 -32 49 -31 36 1 44 5 46 23 3 19 -2 21 -43 21
-30 0 -48 -5 -52 -13z"/>
<path d="M1677 2133 c-3 -2 -3 -12 0 -21 3 -14 15 -18 51 -17 40 0 47 3 47 20
0 17 -7 20 -47 21 -26 1 -49 0 -51 -3z"/>
<path d="M1877 2127 c-9 -23 5 -32 50 -33 39 -1 61 14 49 35 -9 14 -93 12 -99
-2z"/>
<path d="M2073 2123 c-3 -8 -3 -17 1 -20 8 -9 96 -12 97 -4 0 3 2 14 4 23 3
15 -4 17 -47 16 -33 0 -51 -5 -55 -15z"/>
<path d="M2270 2115 c0 -20 4 -22 48 -20 26 2 50 4 54 4 3 1 4 10 1 20 -4 16
-14 20 -54 19 -44 0 -49 -2 -49 -23z"/>
<path d="M2470 2116 c0 -20 5 -22 48 -22 40 1 47 4 50 22 3 19 -2 21 -48 21
-45 1 -50 -1 -50 -21z"/>
<path d="M2666 2131 c-11 -24 2 -36 39 -37 53 0 65 4 65 26 0 16 -8 18 -51 17
-27 0 -51 -3 -53 -6z"/>
<path d="M2867 2131 c-12 -24 1 -36 38 -37 53 0 64 4 62 26 -1 14 -10 18 -49
18 -27 0 -50 -3 -51 -7z"/>
<path d="M3063 2125 c-8 -22 1 -28 44 -30 46 -2 69 11 52 31 -16 20 -88 18
-96 -1z"/>
<path d="M3262 2117 c3 -19 9 -22 48 -22 38 0 45 3 48 22 3 19 -1 21 -48 21
-47 1 -51 -1 -48 -21z"/>
<path d="M3462 2117 c3 -19 9 -22 51 -22 42 0 47 2 47 21 0 20 -5 22 -51 22
-46 1 -50 -1 -47 -21z"/>
<path d="M3660 2124 c0 -8 -1 -17 -2 -21 -2 -4 20 -7 47 -8 45 0 50 2 51 22 1
21 -3 22 -47 21 -34 0 -49 -5 -49 -14z"/>
<path d="M3853 2124 c-8 -23 4 -29 54 -29 41 0 48 3 48 20 0 17 -7 20 -48 21
-32 1 -50 -3 -54 -12z"/>
<path d="M4050 2117 c0 -21 5 -23 50 -23 45 0 50 2 50 22 0 19 -6 22 -50 23
-46 1 -50 -1 -50 -22z"/>
<path d="M4247 2118 c-3 -10 0 -19 6 -19 77 -9 97 -4 97 22 0 17 -7 19 -49 18
-39 -2 -51 -6 -54 -21z"/>
<path d="M4450 2117 c0 -22 4 -24 45 -22 50 2 60 7 52 30 -5 10 -20 15 -52 15
-41 0 -45 -2 -45 -23z"/>
<path d="M4647 2126 c-9 -22 7 -32 48 -30 53 2 51 1 51 23 0 15 -8 19 -47 20
-31 0 -49 -4 -52 -13z"/>
<path d="M4845 2130 c-13 -21 8 -37 48 -36 35 1 43 5 45 23 3 19 -2 21 -42 21
-25 0 -48 -3 -51 -8z"/>
<path d="M5040 2116 c0 -18 6 -21 50 -22 36 -1 50 3 50 12 0 8 1 17 3 22 1 4
-22 8 -50 8 -48 1 -53 -1 -53 -20z"/>
<path d="M5240 2117 c0 -21 4 -23 48 -22 40 0 47 3 50 21 3 19 -3 21 -48 23
-46 1 -50 0 -50 -22z"/>
<path d="M5437 2131 c-12 -24 1 -35 41 -36 50 -1 67 7 59 29 -4 11 -19 15 -52
14 -25 0 -47 -3 -48 -7z"/>
<path d="M5634 2125 c-9 -23 1 -29 51 -30 30 -2 46 2 50 12 8 23 -1 29 -50 32
-34 1 -47 -2 -51 -14z"/>
<path d="M5832 2117 c3 -18 10 -21 51 -22 42 -1 47 1 47 20 0 19 -6 22 -51 22
-45 1 -50 -1 -47 -20z"/>
<path d="M6030 2115 c0 -18 6 -21 50 -21 45 0 50 2 50 22 0 20 -5 22 -50 21
-44 -1 -50 -3 -50 -22z"/>
<path d="M6230 2115 c0 -21 4 -22 45 -20 50 2 60 8 52 28 -3 9 -22 14 -51 14
-41 1 -46 -1 -46 -22z"/>
<path d="M886 1858 c381 -602 996 -1085 1680 -1317 206 -70 460 -128 646 -147
34 -3 83 -9 108 -13 66 -11 462 -11 560 -1 151 16 184 20 270 35 135 24 141
25 225 47 44 11 85 21 90 22 6 2 30 9 55 16 25 7 50 14 55 16 6 1 60 20 120
42 345 123 653 297 945 531 111 89 345 315 412 398 25 32 55 67 65 78 41 45
233 316 233 329 0 4 -1235 6 -2745 6 l-2745 0 26 -42z"/>
</g>
</svg>
